<svg width="18" height="18" viewBox="0 0 18 18" fill="none" xmlns="http://www.w3.org/2000/svg">
<rect width="18" height="18" fill="white"/>
<path opacity="0.2" d="M8.94434 11.972L8.92212 11.992L8.30664 11.332L8.94434 11.972Z" fill="#1B2A33"/>
<path d="M8.94434 11.972L8.92212 11.992L8.30664 11.332L8.94434 11.972Z" fill="#1B2A33"/>
<path d="M16.4516 4.97074L14.3696 6.9105L10.6123 10.4167L8.94361 11.9721L8.3059 11.3322L8.29924 11.3255L5.40625 8.43253L7.01717 6.82162L8.99916 8.80582L12.9409 5.13072L14.5052 3.6709L16.4516 4.97074Z" fill="#1B2A33"/>
<path opacity="0.9" d="M14.1698 8.92112C13.3321 13.185 10.1259 15.1604 9.00376 15.7314C7.85946 15.1492 4.58207 13.125 3.79994 8.7367C3.68662 8.11011 3.62885 7.45464 3.62885 6.78583V6.08592L9.00154 2.50191L11.8323 4.38835L13.3966 2.92853L8.99932 0L1.54688 4.9705V6.78583C1.54688 7.57684 1.61576 8.35897 1.7513 9.10554C2.88672 15.4959 8.38384 17.7534 8.61714 17.8467L9.00154 18L9.38816 17.8467C9.62147 17.7534 15.1164 15.4959 16.254 9.10554L16.2607 9.0611C16.2696 9.00111 16.454 7.61239 16.454 6.79249L14.1698 8.92112Z" fill="url(#paint0_linear_782_679)"/>
<defs>
<linearGradient id="paint0_linear_782_679" x1="4.35468" y1="14.3036" x2="15.444" y2="4.33924" gradientUnits="userSpaceOnUse">
<stop stop-color="#0080F9"/>
<stop offset="1" stop-color="#01B0EB"/>
</linearGradient>
</defs>
</svg>
