<?xml version="1.0" encoding="UTF-8"?>
<svg id="_レイヤー_2" data-name="レイヤー_2" xmlns="http://www.w3.org/2000/svg" xmlns:xlink="http://www.w3.org/1999/xlink" viewBox="0 0 382 42">
  <defs>
    <style>
      .cls-1, .cls-2 {
        fill: #1b2a33;
      }

      .cls-3 {
        fill: #fff;
      }

      .cls-4 {
        fill: none;
      }

      .cls-5 {
        fill: url(#_ロゴ);
      }

      .cls-2 {
        opacity: .2;
      }
    </style>
    <linearGradient id="_ロゴ" data-name="ロゴ" x1="6.34" y1="30.56" x2="29.39" y2="9.07" gradientUnits="userSpaceOnUse">
      <stop offset="0" stop-color="#0080f9"/>
      <stop offset="1" stop-color="#01b0eb"/>
    </linearGradient>
  </defs>
  <g id="_レイヤー_1-2" data-name="レイヤー_1">
    <g>
      <rect class="cls-4" width="382" height="42"/>
      <rect class="cls-4" x=".23" width="381.53" height="42"/>
      <rect class="cls-1" x="263.26" y="11.45" width="118" height="24"/>
      <g>
        <path class="cls-3" d="M272.23,15.33h2.63l1.63,6.68c.41,1.69.72,4.51.72,4.51h.04s.45-2.93.83-4.58l1.69-6.61h2.52l1.67,6.59c.39,1.67.8,4.6.8,4.6h.04s.37-2.84.8-4.53l1.63-6.66h2.63l-3.82,13.8h-2.5l-1.76-7.22c-.37-1.47-.72-4.14-.72-4.14h-.04s-.37,2.67-.71,4.14l-1.86,7.22h-2.56l-3.67-13.8Z"/>
        <path class="cls-3" d="M291.52,15.33h5.97c1.56,0,2.75.46,3.51,1.3.74.8,1.17,1.8,1.17,3.02,0,2.6-1.65,4.29-4.56,4.29h-3.49v5.2h-2.6v-13.8ZM294.12,21.88h3.08c1.58,0,2.39-.85,2.39-2.19s-.85-2.15-2.36-2.15h-3.12v4.34Z"/>
        <path class="cls-3" d="M307.82,24.72h2.58c.19,1.78,1.35,2.67,3.47,2.67,1.5,0,2.75-.65,2.75-2.02,0-1.48-1.37-1.82-3.56-2.32-2.58-.58-4.73-1.26-4.73-4.03,0-2.62,2.15-3.93,5.1-3.93,3.21,0,5.07,1.54,5.33,4.08h-2.5c-.2-1.35-1.22-2.12-2.86-2.12-1.54,0-2.56.65-2.56,1.74,0,1.28,1.34,1.61,3.47,2.06,2.56.56,4.92,1.32,4.92,4.3,0,2.75-2.3,4.29-5.36,4.29-3.79,0-5.92-1.91-6.03-4.73Z"/>
        <path class="cls-3" d="M320.53,24.2c0-2.95,1.99-5.23,4.92-5.23,1.45,0,2.58.5,3.41,1.39.96,1.02,1.43,2.58,1.41,4.42h-7.4c.17,1.71,1.08,2.86,2.73,2.86,1.13,0,1.87-.48,2.19-1.3h2.3c-.48,1.78-2.08,3.1-4.51,3.1-3.15,0-5.05-2.3-5.05-5.23ZM322.9,23.29h4.94c-.09-1.63-.96-2.62-2.39-2.62-1.54,0-2.34,1.06-2.54,2.62Z"/>
        <path class="cls-3" d="M331.41,24.2c0-2.95,1.95-5.23,4.99-5.23,2.52,0,4.12,1.43,4.47,3.56h-2.3c-.22-1.08-.96-1.76-2.15-1.76-1.73,0-2.62,1.43-2.62,3.43s.89,3.4,2.62,3.4c1.3,0,2.08-.76,2.21-2.06h2.3c-.15,2.3-1.84,3.9-4.49,3.9-3.06,0-5.03-2.3-5.03-5.23Z"/>
        <path class="cls-3" d="M348.85,29.14v-1.41h-.04c-.72,1.08-1.6,1.67-2.99,1.67-2.17,0-3.43-1.35-3.43-3.49v-6.68h2.36v6.35c0,1.17.67,1.86,1.86,1.86,1.34,0,2.19-1.02,2.19-2.39v-5.81h2.34v9.91h-2.28Z"/>
        <path class="cls-3" d="M355.56,21.01h.06c.63-1.28,1.58-1.93,2.84-1.93.28,0,.46.02.63.09v2.12h-.07c-.22-.06-.41-.07-.65-.07-1.56-.02-2.73,1.04-2.73,2.95v4.97h-2.36v-9.91h2.28v1.78Z"/>
        <path class="cls-3" d="M360.59,15.33h2.41v2.28h-2.41v-2.28ZM360.63,19.23h2.36v9.91h-2.36v-9.91Z"/>
        <path class="cls-3" d="M365.1,32.4v-1.91h.13c.09.06.74.09.98.09.8,0,1.24-.3,1.45-1.09,0-.19.09-1.11-.11-1.65l-3.41-8.61h2.5l1.63,4.6c.43,1.22.83,3.08.83,3.08h.04s.45-1.87.85-3.08l1.58-4.6h2.38l-3.84,10.46c-.82,2.19-1.67,2.82-3.28,2.82-.3,0-1.56-.06-1.73-.11Z"/>
      </g>
      <g>
        <g>
          <path class="cls-1" d="M53.4,34.63c-2.61,0-4.86-.56-6.76-1.69-1.9-1.13-3.36-2.7-4.37-4.73-1.02-2.02-1.53-4.36-1.53-7.02s.51-5,1.53-7.04c1.02-2.03,2.48-3.62,4.37-4.77,1.9-1.14,4.15-1.71,6.76-1.71,3.15,0,5.73.78,7.73,2.35,2,1.56,3.24,3.75,3.74,6.55h-5.36c-.3-1.41-.97-2.52-2.01-3.31-1.04-.79-2.43-1.19-4.17-1.19-1.59,0-2.95.37-4.1,1.1-1.14.73-2.02,1.78-2.64,3.15s-.93,2.99-.93,4.88.31,3.51.93,4.86c.62,1.35,1.5,2.4,2.64,3.13,1.14.73,2.51,1.1,4.1,1.1,1.74,0,3.12-.37,4.15-1.12s1.71-1.82,2.03-3.24h5.32c-.47,2.76-1.71,4.9-3.7,6.42-2,1.53-4.57,2.29-7.73,2.29Z"/>
          <path class="cls-1" d="M67.44,34.18V7.37h4.84v26.81h-4.84Z"/>
          <path class="cls-1" d="M84.53,34.63c-1.86,0-3.54-.41-5.03-1.23-1.49-.82-2.67-1.96-3.54-3.42-.87-1.46-1.3-3.14-1.3-5.03s.43-3.59,1.3-5.04c.87-1.45,2.05-2.59,3.56-3.41,1.5-.82,3.17-1.23,5.01-1.23s3.54.41,5.03,1.23c1.49.82,2.67,1.95,3.54,3.41.87,1.45,1.3,3.13,1.3,5.04s-.43,3.56-1.3,5.03c-.87,1.46-2.05,2.61-3.54,3.42-1.49.82-3.16,1.23-5.03,1.23ZM84.53,30.46c.89,0,1.71-.2,2.46-.61.74-.41,1.33-1.02,1.77-1.84.43-.82.65-1.84.65-3.05s-.22-2.23-.67-3.05c-.45-.82-1.04-1.43-1.77-1.84-.73-.41-1.55-.61-2.44-.61s-1.68.2-2.42.61c-.75.41-1.34,1.02-1.79,1.84-.45.82-.67,1.84-.67,3.05s.22,2.23.65,3.05c.43.82,1.02,1.43,1.77,1.84.74.41,1.56.61,2.46.61Z"/>
          <path class="cls-1" d="M103.25,34.63c-2.11,0-3.78-.73-5.01-2.18-1.23-1.45-1.84-3.57-1.84-6.35v-10.39h4.84v9.94c0,1.59.3,2.8.91,3.63.61.83,1.5,1.25,2.66,1.25,1.32,0,2.33-.47,3.05-1.4.72-.93,1.08-2.23,1.08-3.89v-9.53h4.84v18.47h-4.84v-2.72c-.55.97-1.29,1.74-2.23,2.31-.94.57-2.1.86-3.46.86Z"/>
          <path class="cls-1" d="M125.18,34.63c-1.74,0-3.29-.42-4.67-1.27s-2.46-2-3.26-3.48c-.79-1.48-1.19-3.13-1.19-4.97s.4-3.52,1.19-4.97c.79-1.45,1.88-2.59,3.26-3.42,1.38-.83,2.94-1.25,4.67-1.25,1.39,0,2.6.26,3.63.78,1.03.52,1.85,1.24,2.48,2.16V7.37h4.84v26.81h-4.84v-2.64c-.57.82-1.35,1.54-2.33,2.16-.98.62-2.24.93-3.78.93ZM126.22,30.42c1.02,0,1.92-.24,2.7-.71.78-.47,1.39-1.12,1.82-1.95s.65-1.77.65-2.81-.22-2.01-.65-2.83-1.04-1.46-1.82-1.94c-.78-.47-1.68-.71-2.7-.71s-1.89.24-2.68.71c-.79.47-1.41,1.11-1.86,1.92-.45.81-.67,1.74-.67,2.81s.22,2.02.67,2.85c.45.83,1.07,1.48,1.86,1.95.79.47,1.69.71,2.68.71Z"/>
          <path class="cls-1" d="M149.19,34.63c-1.22,0-2.42-.17-3.61-.5-1.19-.34-2.28-.87-3.28-1.6-.99-.73-1.82-1.68-2.48-2.83-.66-1.15-1.05-2.54-1.17-4.15h4.47c.2,1.27.61,2.26,1.25,2.98.63.72,1.39,1.22,2.27,1.51.88.29,1.76.43,2.62.43.97,0,1.83-.15,2.59-.45.76-.3,1.35-.73,1.79-1.28s.65-1.21.65-1.95-.21-1.46-.63-2.07c-.42-.61-1.33-1.04-2.72-1.28l-4.43-.82c-2.13-.4-3.8-1.25-5.01-2.55-1.2-1.3-1.81-2.85-1.81-4.64,0-1.64.41-3.03,1.23-4.17.82-1.14,1.92-2.02,3.31-2.64s2.92-.93,4.58-.93,3.3.3,4.69.89c1.39.6,2.52,1.51,3.39,2.74s1.39,2.81,1.56,4.75h-4.54c-.15-1.12-.48-1.98-.99-2.59-.51-.61-1.12-1.04-1.82-1.28-.71-.25-1.43-.37-2.18-.37-.7,0-1.41.11-2.16.34s-1.37.59-1.86,1.1c-.5.51-.74,1.2-.74,2.07,0,.75.28,1.41.84,1.99s1.46.99,2.7,1.21l4.1.74c2.18.4,3.9,1.17,5.16,2.33,1.25,1.15,1.88,2.84,1.88,5.04,0,1.32-.28,2.46-.84,3.44-.56.98-1.3,1.81-2.22,2.49-.92.68-1.95,1.2-3.09,1.55-1.14.35-2.31.52-3.5.52Z"/>
          <path class="cls-1" d="M170.19,34.63c-1.89,0-3.55-.4-4.99-1.21-1.44-.81-2.57-1.92-3.39-3.35-.82-1.43-1.23-3.08-1.23-4.97s.4-3.61,1.21-5.1c.81-1.49,1.93-2.65,3.37-3.48,1.44-.83,3.11-1.25,5.03-1.25s3.45.4,4.84,1.19c1.39.79,2.48,1.87,3.26,3.24.78,1.37,1.17,2.92,1.17,4.65v.82c0,.3-.03.61-.07.93h-15.3v-2.98h10.5c-.07-1.19-.52-2.15-1.34-2.87s-1.82-1.08-3.02-1.08c-.89,0-1.71.2-2.46.6s-1.33.99-1.77,1.77c-.43.78-.65,1.78-.65,3v1.04c0,1.04.21,1.95.63,2.72.42.77.99,1.36,1.71,1.77.72.41,1.54.61,2.46.61s1.74-.21,2.38-.63c.64-.42,1.14-.98,1.49-1.68h4.91c-.35,1.17-.93,2.23-1.73,3.18-.81.96-1.81,1.71-3,2.25-1.19.55-2.53.82-4.02.82Z"/>
          <path class="cls-1" d="M190.93,34.63c-1.89,0-3.55-.42-5.01-1.25s-2.59-1.97-3.43-3.42-1.25-3.12-1.25-5.01.42-3.56,1.25-5.01,1.97-2.59,3.43-3.42c1.45-.83,3.12-1.25,5.01-1.25,2.36,0,4.34.61,5.96,1.84,1.61,1.23,2.64,2.92,3.09,5.08h-5.1c-.22-.84-.7-1.52-1.41-2.03-.72-.51-1.58-.76-2.57-.76-.84,0-1.63.22-2.35.67-.72.45-1.29,1.08-1.71,1.9-.42.82-.63,1.81-.63,2.98s.21,2.13.63,2.98c.42.84.99,1.48,1.71,1.92.72.43,1.5.65,2.35.65.99,0,1.85-.24,2.57-.73.72-.48,1.19-1.17,1.41-2.07h5.1c-.42,2.08-1.45,3.76-3.07,5.03-1.63,1.27-3.62,1.9-5.98,1.9Z"/>
          <path class="cls-1" d="M208.87,34.63c-2.11,0-3.78-.73-5.01-2.18-1.23-1.45-1.84-3.57-1.84-6.35v-10.39h4.84v9.94c0,1.59.3,2.8.91,3.63.61.83,1.49,1.25,2.66,1.25,1.31,0,2.33-.47,3.05-1.4.72-.93,1.08-2.23,1.08-3.89v-9.53h4.84v18.47h-4.84v-2.72c-.55.97-1.29,1.74-2.23,2.31-.94.57-2.1.86-3.46.86Z"/>
          <path class="cls-1" d="M222.42,34.18V15.71h4.84v2.83c.47-.94,1.08-1.68,1.82-2.22.74-.53,1.6-.8,2.57-.8h2.35v4.32h-2.83c-.89,0-1.63.24-2.22.71-.58.47-1.01,1.18-1.28,2.12-.27.94-.41,2.11-.41,3.5v8h-4.84Z"/>
          <path class="cls-1" d="M243.68,34.63c-1.89,0-3.55-.4-4.99-1.21-1.44-.81-2.57-1.92-3.39-3.35-.82-1.43-1.23-3.08-1.23-4.97s.4-3.61,1.21-5.1c.81-1.49,1.93-2.65,3.37-3.48,1.44-.83,3.11-1.25,5.03-1.25s3.45.4,4.84,1.19c1.39.79,2.48,1.87,3.26,3.24.78,1.37,1.17,2.92,1.17,4.65v.82c0,.3-.03.61-.07.93h-15.3v-2.98h10.5c-.07-1.19-.52-2.15-1.34-2.87s-1.82-1.08-3.02-1.08c-.89,0-1.71.2-2.46.6s-1.33.99-1.77,1.77c-.43.78-.65,1.78-.65,3v1.04c0,1.04.21,1.95.63,2.72.42.77.99,1.36,1.71,1.77.72.41,1.54.61,2.46.61s1.74-.21,2.38-.63c.64-.42,1.14-.98,1.49-1.68h4.91c-.35,1.17-.93,2.23-1.73,3.18-.81.96-1.81,1.71-3,2.25s-2.53.82-4.02.82Z"/>
        </g>
        <g>
          <g>
            <polygon class="cls-2" points="17.55 27.75 17.5 27.8 16.1 26.3 17.55 27.75"/>
            <polygon class="cls-1" points="17.55 27.75 17.5 27.8 16.1 26.3 17.55 27.75"/>
            <polygon class="cls-1" points="34.6 11.85 29.88 16.26 21.34 24.22 17.55 27.75 16.1 26.3 16.09 26.29 9.51 19.71 13.17 16.06 17.68 20.56 26.63 12.21 30.18 8.9 34.6 11.85"/>
          </g>
          <path class="cls-5" d="M29.42,20.82c-1.9,9.68-9.18,14.17-11.74,15.47-2.6-1.32-10.05-5.92-11.82-15.89-.26-1.42-.39-2.91-.39-4.43v-1.59l12.2-8.14,6.43,4.28,3.55-3.31L17.68.56.75,11.85v4.12c0,1.8.16,3.57.46,5.27,2.58,14.51,15.06,19.64,15.6,19.85l.87.35.88-.35c.53-.21,13.01-5.34,15.6-19.85l.02-.1c.02-.14.44-3.29.44-5.15l-5.19,4.84Z"/>
        </g>
      </g>
    </g>
  </g>
</svg>